<?xml version="1.0" standalone="no"?><!DOCTYPE svg PUBLIC "-//W3C//DTD SVG 1.1//EN" "http://www.w3.org/Graphics/SVG/1.1/DTD/svg11.dtd"><svg t="1570260701455" class="icon" viewBox="0 0 1024 1024" version="1.1" xmlns="http://www.w3.org/2000/svg" p-id="5654" xmlns:xlink="http://www.w3.org/1999/xlink" width="32" height="32"><defs><style type="text/css"></style></defs><path d="M1017.6 160C998.4 128 960 121.6 928 134.4L896 153.6 896 128c0-70.4-57.6-128-128-128L256 0C185.6 0 128 57.6 128 128l0 460.8-96 57.6C0 665.6-6.4 704 6.4 736 19.2 755.2 44.8 768 64 768c12.8 0 19.2 0 32-6.4L128 742.4 128 960c0 38.4 32 64 64 64 12.8 0 25.6-6.4 38.4-12.8L512 768l281.6 243.2C806.4 1024 819.2 1024 832 1024c32 0 64-25.6 64-64L896 307.2l96-57.6C1024 230.4 1030.4 192 1017.6 160zM256 128l512 0 0 96L256 518.4 256 128zM768 819.2l-172.8-147.2L512 601.6l-83.2 70.4L256 819.2l0-147.2 512-294.4L768 819.2z" p-id="5655" fill="#515151"></path></svg>