<?xml version="1.0" standalone="no"?><!DOCTYPE svg PUBLIC "-//W3C//DTD SVG 1.1//EN" "http://www.w3.org/Graphics/SVG/1.1/DTD/svg11.dtd"><svg t="1570851273647" class="icon" viewBox="0 0 1024 1024" version="1.1" xmlns="http://www.w3.org/2000/svg" p-id="2883" width="27" height="27" xmlns:xlink="http://www.w3.org/1999/xlink"><defs><style type="text/css"></style></defs><path d="M483.959 681.171l450.684-450.712c14.663-14.653 14.663-38.39 0-53.043l-53.026-53.01c-14.636-14.648-38.39-14.648-53.026 0L377.895 575.118l106.064 106.053z m-159.095-53.026c-29.285 29.272-55.8 103.28-26.511 132.552 29.3 29.272 103.291 2.774 132.552-26.5l26.538-26.527-106.064-106.026-26.515 26.5z m540.854 221.388c0 20.678-16.778 37.484-37.511 37.484H190.818c-20.717 0-37.484-16.806-37.484-37.484v-674.89c0-20.733 16.768-37.495 37.484-37.495h487.428V62.153H153.335c-41.422 0-74.995 33.585-74.995 74.995v749.869c0 41.41 33.568 74.968 74.995 74.968h712.386c41.41 0 74.968-33.557 74.968-74.968V437.101h-74.968v412.432z" fill="#ffffff" p-id="2884"></path></svg>