<?xml version="1.0" standalone="no"?><!DOCTYPE svg PUBLIC "-//W3C//DTD SVG 1.1//EN" "http://www.w3.org/Graphics/SVG/1.1/DTD/svg11.dtd"><svg t="1570616451037" class="icon" viewBox="0 0 1024 1024" version="1.1" xmlns="http://www.w3.org/2000/svg" p-id="1151" data-spm-anchor-id="a313x.7781069.0.i0" xmlns:xlink="http://www.w3.org/1999/xlink" width="200" height="200"><defs><style type="text/css"></style></defs><path d="M977.031209 477.205062C946.369811 441.43343 890.157247 436.323197 882.491897 436.323197h-227.405371c10.220466-51.102331 30.661398-219.740022 33.216515-304.058867 0-35.771631-15.330699-66.43303-45.992098-91.984195C603.984195 9.618736 550.326748-5.711963 504.33465 1.953387c-76.653496 15.330699-86.873962 125.20071-86.873962 127.755826-38.326748 268.287236-153.306992 306.613984-166.082574 306.613984h-102.204662C95.516005 436.323197 52.079024 474.649945 52.079024 530.862509v393.487946C52.079024 978.007902 95.516005 1024 149.173452 1024h536.574472c104.759778 0 140.531409-84.318846 143.086526-86.873962L989.806792 564.079024l2.555116-7.66535c7.66535-38.326748-5.110233-63.877913-15.330699-79.208612zM103.181355 924.350455V530.862509c0-28.106282 20.440932-43.436981 45.992097-43.436981H230.937181v485.472141H149.173452c-25.551165 0-45.992098-22.996049-45.992097-48.547214z m838.078223-378.157247l-160.972342 370.491898c0 2.555117-25.551165 56.212564-94.539312 56.212563H282.039512V474.649945c51.102331-17.885816 150.751875-86.873962 186.523507-339.830499 0 0 7.66535-74.098379 45.992098-79.208612 30.661398-5.110233 68.988146 5.110233 94.539311 28.106282 12.775583 10.220466 28.106282 28.106282 28.106282 53.657447-2.555117 102.204661-35.771631 324.4998-35.771631 327.054916l-5.110233 25.551165h286.173051c10.220466 0 40.881865 7.66535 53.657448 22.996049 2.555117 0 10.220466 12.775583 5.110233 33.216515z" fill="#f4ea2a" p-id="1152"></path></svg>