<?xml version="1.0" standalone="no"?><!DOCTYPE svg PUBLIC "-//W3C//DTD SVG 1.1//EN" "http://www.w3.org/Graphics/SVG/1.1/DTD/svg11.dtd"><svg t="1570616535163" class="icon" viewBox="0 0 1024 1024" version="1.1" xmlns="http://www.w3.org/2000/svg" p-id="2211" xmlns:xlink="http://www.w3.org/1999/xlink" width="200" height="200"><defs><style type="text/css"></style></defs><path d="M977.031209 477.205062C946.369811 441.43343 890.157247 436.323197 882.491897 436.323197h-227.405371c10.220466-51.102331 30.661398-219.740022 33.216515-304.058867 0-35.771631-15.330699-66.43303-45.992098-91.984195C603.984195 9.618736 550.326748-5.711963 504.33465 1.953387c-76.653496 15.330699-86.873962 125.20071-86.873962 127.755826-38.326748 268.287236-153.306992 306.613984-166.082574 306.613984h-102.204662C95.516005 436.323197 52.079024 474.649945 52.079024 530.862509v393.487946C52.079024 978.007902 95.516005 1024 149.173452 1024h536.574472c104.759778 0 140.531409-84.318846 143.086526-86.873962L989.806792 564.079024l2.555116-7.66535c7.66535-38.326748-5.110233-63.877913-15.330699-79.208612z" fill="#f4ea2a" p-id="2212"></path></svg>