<?xml version="1.0" standalone="no"?><!DOCTYPE svg PUBLIC "-//W3C//DTD SVG 1.1//EN" "http://www.w3.org/Graphics/SVG/1.1/DTD/svg11.dtd"><svg t="1570869154257" class="icon" viewBox="0 0 1024 1024" version="1.1" xmlns="http://www.w3.org/2000/svg" p-id="5649" xmlns:xlink="http://www.w3.org/1999/xlink" width="27" height="27"><defs><style type="text/css"></style></defs><path d="M1013.12 877.888a71.744 71.744 0 0 1-1.184 71.808 72.864 72.864 0 0 1-62.656 35.904H73.984a72.928 72.928 0 0 1-62.688-35.904 71.872 71.872 0 0 1-1.152-71.808L447.808 75.584a72.512 72.512 0 0 1 127.68 0L1013.12 877.888zM593.664 346.24a13.824 13.824 0 0 0-5.664-10.816c-3.424-2.848-8.576-6.272-13.696-6.272H448.96c-5.12 0-10.24 3.424-13.696 6.272-4 2.848-5.664 8.544-5.664 11.968l9.664 260.416c0 7.424 8.544 13.088 19.392 13.088h105.408c10.24 0 18.784-5.664 19.36-13.088l10.24-261.568z m-9.088 366.432a18.496 18.496 0 0 0-18.24-18.816h-109.408c-10.24 0-18.24 8.544-18.24 18.816v108.224c0 10.272 7.968 18.816 18.24 18.816h109.408c10.24 0 18.24-8.544 18.24-18.816v-108.224z" fill="#d81e06" p-id="5650"></path></svg>