<?xml version="1.0" standalone="no"?><!DOCTYPE svg PUBLIC "-//W3C//DTD SVG 1.1//EN" "http://www.w3.org/Graphics/SVG/1.1/DTD/svg11.dtd"><svg t="1569694107666" class="icon" viewBox="0 0 1024 1024" version="1.1" xmlns="http://www.w3.org/2000/svg" p-id="2302" xmlns:xlink="http://www.w3.org/1999/xlink" width="200" height="200"><defs><style type="text/css"></style></defs><path d="M758.784 362.496c0 9.216-7.168 17.408-17.408 17.408h-486.4c-9.216 0-17.408-8.192-17.408-17.408v-26.624c0-9.216 8.192-17.408 17.408-17.408h486.4c9.216 0 17.408 8.192 17.408 17.408v26.624m0 162.816c0 9.216-7.168 17.408-17.408 17.408h-486.4c-9.216 0-17.408-8.192-17.408-17.408v-26.624c0-9.216 8.192-17.408 17.408-17.408h486.4c9.216 0 17.408 8.192 17.408 17.408v26.624z m0 163.84c0 9.216-7.168 17.408-17.408 17.408h-486.4c-9.216 0-17.408-8.192-17.408-17.408v-26.624c0-9.216 8.192-17.408 17.408-17.408h486.4c9.216 0 17.408 8.192 17.408 17.408v26.624z m-521.216-517.12c0-9.216 8.192-17.408 17.408-17.408H604.16c9.216 0 17.408 8.192 17.408 17.408v26.624c0 9.216-8.192 17.408-17.408 17.408H254.976c-9.216 0-17.408-8.192-17.408-17.408v-26.624zM838.656 1.024H171.008c-56.32 0-102.4 46.08-102.4 102.4v882.688c0 11.264 4.096 22.528 13.312 29.696 7.168 6.144 13.312 7.168 19.456 6.144h5.12c6.144 0 12.288-2.048 17.408-6.144l62.464-49.152c30.72-24.576 74.752-24.576 105.472 0l62.464 49.152c10.24 8.192 24.576 8.192 34.816 0l53.248-41.984c38.912-30.72 93.184-30.72 131.072 0l50.176 38.912c10.24 8.192 24.576 8.192 34.816 0l49.152-38.912c38.912-30.72 93.184-30.72 131.072 0l51.2 39.936c5.12 4.096 12.288 6.144 18.432 6.144 4.096 1.024 9.216 2.048 13.312 1.024 13.312-3.072 22.528-15.36 22.528-28.672V103.424c-3.072-56.32-49.152-102.4-105.472-102.4z" p-id="2303"></path></svg>