<?xml version="1.0" standalone="no"?><!DOCTYPE svg PUBLIC "-//W3C//DTD SVG 1.1//EN" "http://www.w3.org/Graphics/SVG/1.1/DTD/svg11.dtd"><svg t="1569694044297" class="icon" viewBox="0 0 1024 1024" version="1.1" xmlns="http://www.w3.org/2000/svg" p-id="2189" xmlns:xlink="http://www.w3.org/1999/xlink" width="200" height="200"><defs><style type="text/css"></style></defs><path d="M808 992H280c-66.2 0-120-54.5-120-121.6V153.6C160 86.5 213.8 32 280 32h308c8.6 0 16.8 3.5 22.8 9.6l308 313.6c5.9 6 9.2 14 9.2 22.4v492.8c0 67.1-53.8 121.6-120 121.6zM280 96c-30.9 0-56 25.8-56 57.6v716.8c0 31.8 25.1 57.6 56 57.6h528c30.9 0 56-25.8 56-57.6V390.7L574.6 96H280z" p-id="2190"></path><path d="M896 416H576c-17.7 0-32-14.3-32-32V64c0-17.7 14.3-32 32-32s32 14.3 32 32v288h288c17.7 0 32 14.3 32 32s-14.3 32-32 32z" p-id="2191"></path></svg>