<?xml version="1.0" standalone="no"?><!DOCTYPE svg PUBLIC "-//W3C//DTD SVG 1.1//EN" "http://www.w3.org/Graphics/SVG/1.1/DTD/svg11.dtd"><svg t="1570876420720" class="icon" viewBox="0 0 1024 1024" version="1.1" xmlns="http://www.w3.org/2000/svg" p-id="2185" width="32" height="32" xmlns:xlink="http://www.w3.org/1999/xlink"><defs><style type="text/css"></style></defs><path d="M816.078 735.884H208.121c-61.81 0-112.096-50.286-112.096-112.096V255.879c0-52.987 43.108-96.096 96.096-96.096h623.958c61.81 0 112.096 50.286 112.096 112.096v351.909c-0.001 61.81-50.287 112.096-112.097 112.096z m-623.957-512.1c-17.698 0-32.096 14.398-32.096 32.096v367.909c0 26.521 21.576 48.096 48.096 48.096h607.958c26.521 0 48.096-21.575 48.096-48.096v-351.91c0-26.52-21.575-48.096-48.096-48.096H192.121zM704.137 863.721H320.062c-17.673 0-32-14.327-32-32s14.327-32 32-32h384.075c17.673 0 32 14.327 32 32s-14.327 32-32 32z" fill="#515151" p-id="2186"></path><path d="M313.715 422.874l48.678-41.548 136.525 159.952-48.679 41.548z" fill="#515151" p-id="2187"></path><path d="M409.37 532.266l258.353-211.969 40.595 49.479-258.353 211.969z" fill="#515151" p-id="2188"></path></svg>