<?xml version="1.0" standalone="no"?><!DOCTYPE svg PUBLIC "-//W3C//DTD SVG 1.1//EN" "http://www.w3.org/Graphics/SVG/1.1/DTD/svg11.dtd"><svg t="1569046323387" class="icon" viewBox="0 0 1024 1024" version="1.1" xmlns="http://www.w3.org/2000/svg" p-id="7163" xmlns:xlink="http://www.w3.org/1999/xlink" width="32" height="32"><defs><style type="text/css"></style></defs><path d="M30.4476 485.0237l457.408512 0 0 65.343488L320.415744 550.367188l0 105.648128 159.280128 0 0 61.280256L320.415744 717.295572l0 147.023872c32.6717 8.1603 70.784 12.2563 114.3521 12.2563 155.1841 5.4395 348.4959 5.4395 579.9363 0-8.1756 19.0556-17.7121 43.5517-28.5921 73.5037-155.1995 0-269.5516 0-343.0564 0-89.856 0-164.7196-1.3599-224.6236-4.0796-127.9683 0-219.1841-47.6477-273.6323-142.9443-16.3359 54.4645-42.1919 114.3521-77.5844 179.6956-16.3523-16.3359-34.048-34.0316-53.1036-53.0883 54.4481-84.4001 84.4001-195.9035 89.856-334.5121l69.4241 12.2081c-2.7197 35.2963-6.8157 69.2316-12.2563 101.7917 32.6717 59.8876 63.9836 102.0805 93.9356 126.5756L255.071144 550.368256 30.447616 550.368256 30.447616 485.023744zM92.2563 55.9524l346.943488 0 0 355.168256L92.256256 411.120656 92.256256 55.952384zM157.5997 113.1356l0 90.271744 216.256512 0 0-90.271744L157.599744 113.1356zM157.5997 264.6876l0 89.247744 216.256512 0 0-89.247744L157.599744 264.6876zM696.4163 346.1601l65.343488 0 0 134.767616c0 59.904-5.4559 111.6477-16.3359 155.1995 8.1603 8.1756 21.7764 19.072 40.8484 32.6717 46.2725 32.6717 103.4557 77.5997 171.52 134.7676L904.704 856.6559c-73.5201-62.6084-134.784-114.3357-183.7763-155.1841-35.4079 70.784-104.832 125.2475-208.2877 163.3597-5.4559-5.4395-12.2563-14.976-20.4165-28.5921-10.8964-10.88-19.072-19.0556-24.5125-24.4961 166.0805-51.7284 242.304-160.64 228.7043-326.7195L696.4153 346.160128zM491.7125 64.1597 985.856 64.1597l0 65.343488L757.168128 129.503188l-20.4319 110.7845 196.032512 0 0 420.639744-65.343488 0L867.425252 305.632256 589.744128 305.632256l0 355.296256-61.280256 0L528.463872 240.287744l138.848256 0 20.4165-110.7845L491.712512 129.503244 491.712512 64.159744z" p-id="7164" fill="#515151"></path></svg>